<svg width="41" height="17" viewBox="0 0 41 17" fill="none" xmlns="http://www.w3.org/2000/svg">
<path d="M39.3208 5.02051C39.3085 5.07943 39.2574 5.12158 39.1982 5.12158H24.8658C24.7861 5.12158 24.7267 5.04695 24.7432 4.96766L25.7565 0.101076C25.7688 0.042151 25.8199 0 25.8791 0H40.2115C40.2912 0 40.3507 0.0746335 40.3341 0.153924L39.3208 5.02051ZM34.2408 10.9556C34.2286 11.0145 34.1774 11.0566 34.1183 11.0566H28.5494C28.4902 11.0566 28.4391 11.0988 28.4268 11.1577L27.2314 16.8989C27.2192 16.9578 27.1681 17 27.1088 17H22.3909C22.3113 17 22.2518 16.9254 22.2684 16.8461L24.5191 6.04442C24.5314 5.9855 24.5825 5.94336 24.6417 5.94336H35.1315C35.2112 5.94336 35.2707 6.01802 35.2541 6.09733L34.2408 10.9556Z" fill="white"/>
<path d="M1.01613 5.02051C1.0284 5.07943 1.07953 5.12158 1.13874 5.12158H15.4711C15.5508 5.12158 15.6102 5.04695 15.5937 4.96766L14.5804 0.101076C14.5681 0.042151 14.517 0 14.4578 0H0.125368C0.0457022 0 -0.0137428 0.0746335 0.00276795 0.153924L1.01613 5.02051ZM6.09607 10.9556C6.10836 11.0145 6.15948 11.0566 6.21866 11.0566H11.7875C11.8467 11.0566 11.8979 11.0988 11.9101 11.1577L13.1055 16.8989C13.1177 16.9578 13.1689 17 13.2281 17H17.946C18.0256 17 18.0851 16.9254 18.0686 16.8461L15.8178 6.04442C15.8055 5.9855 15.7544 5.94336 15.6952 5.94336H5.20538C5.1257 5.94336 5.06625 6.01802 5.08279 6.09733L6.09607 10.9556Z" fill="white"/>
</svg>
