<svg width="17" height="18" viewBox="0 0 17 18" fill="none" xmlns="http://www.w3.org/2000/svg">
<path fill-rule="evenodd" clip-rule="evenodd" d="M16.7309 16.1423L12.5686 11.98C13.6662 10.7096 14.3309 9.04848 14.3309 7.23071C14.3309 3.2373 11.1228 0 7.16544 0C3.20808 0 0 3.2373 0 7.23071C0 11.2241 3.20808 14.4614 7.16544 14.4614C8.66105 14.4614 10.0496 13.999 11.1985 13.2082L15.4318 17.4415C15.7905 17.8002 16.3722 17.8002 16.7309 17.4415C17.0897 17.0827 17.0897 16.5011 16.7309 16.1423ZM12.4936 7.23075C12.4936 10.2002 10.1081 12.6074 7.1655 12.6074C4.22284 12.6074 1.83735 10.2002 1.83735 7.23075C1.83735 4.26129 4.22284 1.85407 7.1655 1.85407C10.1081 1.85407 12.4936 4.26129 12.4936 7.23075Z" fill="white"/>
</svg>
